<svg width="150" height="50" viewBox="0 0 150 50" fill="none" xmlns="http://www.w3.org/2000/svg">
<path d="M0 0H150V50H0V0Z" fill="#C4C4C4"/>
<path d="M40.0568 30V21.2727H41.1136V29.0625H45.1705V30H40.0568Z" fill="black"/>
<path d="M53.8306 25.6364C53.8306 26.5568 53.6644 27.3523 53.332 28.0227C52.9996 28.6932 52.5437 29.2102 51.9641 29.5739C51.3846 29.9375 50.7227 30.1193 49.9783 30.1193C49.234 30.1193 48.5721 29.9375 47.9925 29.5739C47.413 29.2102 46.957 28.6932 46.6246 28.0227C46.2923 27.3523 46.1261 26.5568 46.1261 25.6364C46.1261 24.7159 46.2923 23.9205 46.6246 23.25C46.957 22.5795 47.413 22.0625 47.9925 21.6989C48.5721 21.3352 49.234 21.1534 49.9783 21.1534C50.7227 21.1534 51.3846 21.3352 51.9641 21.6989C52.5437 22.0625 52.9996 22.5795 53.332 23.25C53.6644 23.9205 53.8306 24.7159 53.8306 25.6364ZM52.8079 25.6364C52.8079 24.8807 52.6815 24.2429 52.4286 23.723C52.1786 23.2031 51.8391 22.8097 51.4102 22.5426C50.984 22.2756 50.5067 22.142 49.9783 22.142C49.4499 22.142 48.9712 22.2756 48.5423 22.5426C48.1161 22.8097 47.7766 23.2031 47.5238 23.723C47.2738 24.2429 47.1488 24.8807 47.1488 25.6364C47.1488 26.392 47.2738 27.0298 47.5238 27.5497C47.7766 28.0696 48.1161 28.4631 48.5423 28.7301C48.9712 28.9972 49.4499 29.1307 49.9783 29.1307C50.5067 29.1307 50.984 28.9972 51.4102 28.7301C51.8391 28.4631 52.1786 28.0696 52.4286 27.5497C52.6815 27.0298 52.8079 26.392 52.8079 25.6364Z" fill="black"/>
<path d="M61.5735 24C61.4798 23.7131 61.3562 23.456 61.2028 23.2287C61.0522 22.9986 60.8718 22.8026 60.6616 22.6406C60.4542 22.4787 60.2184 22.3551 59.9542 22.2699C59.69 22.1847 59.4002 22.142 59.0849 22.142C58.5678 22.142 58.0977 22.2756 57.6744 22.5426C57.2511 22.8097 56.9144 23.2031 56.6644 23.723C56.4144 24.2429 56.2894 24.8807 56.2894 25.6364C56.2894 26.392 56.4158 27.0298 56.6687 27.5497C56.9215 28.0696 57.2638 28.4631 57.6957 28.7301C58.1275 28.9972 58.6133 29.1307 59.1531 29.1307C59.6531 29.1307 60.0934 29.0241 60.4741 28.8111C60.8576 28.5952 61.1559 28.2912 61.369 27.8991C61.5849 27.5043 61.6928 27.0398 61.6928 26.5057L62.0167 26.5739H59.3917V25.6364H62.7156V26.5739C62.7156 27.2926 62.5621 27.9176 62.2553 28.4489C61.9513 28.9801 61.5309 29.392 60.994 29.6847C60.4599 29.9744 59.8462 30.1193 59.1531 30.1193C58.3803 30.1193 57.7014 29.9375 57.1161 29.5739C56.5337 29.2102 56.0792 28.6932 55.7525 28.0227C55.4286 27.3523 55.2667 26.5568 55.2667 25.6364C55.2667 24.946 55.359 24.3253 55.5437 23.7741C55.7312 23.2202 55.9954 22.7486 56.3363 22.3594C56.6772 21.9702 57.0806 21.6719 57.5465 21.4645C58.0124 21.2571 58.5252 21.1534 59.0849 21.1534C59.5451 21.1534 59.9741 21.223 60.3718 21.3622C60.7724 21.4986 61.1289 21.6932 61.4414 21.946C61.7567 22.196 62.0195 22.4957 62.2298 22.8452C62.44 23.1918 62.5849 23.5767 62.6644 24H61.5735Z" fill="black"/>
<path d="M71.8892 25.6364C71.8892 26.5568 71.723 27.3523 71.3906 28.0227C71.0582 28.6932 70.6023 29.2102 70.0227 29.5739C69.4432 29.9375 68.7813 30.1193 68.0369 30.1193C67.2926 30.1193 66.6307 29.9375 66.0511 29.5739C65.4716 29.2102 65.0156 28.6932 64.6832 28.0227C64.3508 27.3523 64.1847 26.5568 64.1847 25.6364C64.1847 24.7159 64.3508 23.9205 64.6832 23.25C65.0156 22.5795 65.4716 22.0625 66.0511 21.6989C66.6307 21.3352 67.2926 21.1534 68.0369 21.1534C68.7813 21.1534 69.4432 21.3352 70.0227 21.6989C70.6023 22.0625 71.0582 22.5795 71.3906 23.25C71.723 23.9205 71.8892 24.7159 71.8892 25.6364ZM70.8665 25.6364C70.8665 24.8807 70.7401 24.2429 70.4872 23.723C70.2372 23.2031 69.8977 22.8097 69.4688 22.5426C69.0426 22.2756 68.5653 22.142 68.0369 22.142C67.5085 22.142 67.0298 22.2756 66.6009 22.5426C66.1747 22.8097 65.8352 23.2031 65.5824 23.723C65.3324 24.2429 65.2074 24.8807 65.2074 25.6364C65.2074 26.392 65.3324 27.0298 65.5824 27.5497C65.8352 28.0696 66.1747 28.4631 66.6009 28.7301C67.0298 28.9972 67.5085 29.1307 68.0369 29.1307C68.5653 29.1307 69.0426 28.9972 69.4688 28.7301C69.8977 28.4631 70.2372 28.0696 70.4872 27.5497C70.7401 27.0298 70.8665 26.392 70.8665 25.6364Z" fill="black"/>
<path d="M76.9048 30V23.4545H77.9105V30H76.9048ZM77.4162 22.3636C77.2202 22.3636 77.0511 22.2969 76.9091 22.1634C76.7699 22.0298 76.7003 21.8693 76.7003 21.6818C76.7003 21.4943 76.7699 21.3338 76.9091 21.2003C77.0511 21.0668 77.2202 21 77.4162 21C77.6122 21 77.7798 21.0668 77.919 21.2003C78.0611 21.3338 78.1321 21.4943 78.1321 21.6818C78.1321 21.8693 78.0611 22.0298 77.919 22.1634C77.7798 22.2969 77.6122 22.3636 77.4162 22.3636Z" fill="black"/>
<path d="M79.7525 30V23.4545H80.7241V24.4773H80.8093C80.9457 24.1278 81.1658 23.8565 81.4698 23.6634C81.7738 23.4673 82.1389 23.3693 82.565 23.3693C82.9968 23.3693 83.3562 23.4673 83.6431 23.6634C83.9329 23.8565 84.1587 24.1278 84.3207 24.4773H84.3888C84.5565 24.1392 84.8079 23.8707 85.1431 23.6719C85.4783 23.4702 85.8803 23.3693 86.3491 23.3693C86.9343 23.3693 87.413 23.5526 87.7852 23.919C88.1573 24.2827 88.3434 24.8494 88.3434 25.6193V30H87.3377V25.6193C87.3377 25.1364 87.2056 24.7912 86.9414 24.5838C86.6772 24.3764 86.3661 24.2727 86.0082 24.2727C85.5479 24.2727 85.1914 24.4119 84.9386 24.6903C84.6857 24.9659 84.5593 25.3153 84.5593 25.7386V30H83.5366V25.517C83.5366 25.1449 83.4158 24.8452 83.1744 24.6179C82.9329 24.3878 82.6218 24.2727 82.2411 24.2727C81.9798 24.2727 81.7354 24.3423 81.5082 24.4815C81.2837 24.6207 81.1019 24.8139 80.9627 25.0611C80.8264 25.3054 80.7582 25.5881 80.7582 25.9091V30H79.7525Z" fill="black"/>
<path d="M92.1083 30.1534C91.6935 30.1534 91.3171 30.0753 90.979 29.919C90.641 29.7599 90.3725 29.5312 90.1737 29.233C89.9748 28.9318 89.8754 28.5682 89.8754 28.142C89.8754 27.767 89.9492 27.4631 90.0969 27.2301C90.2447 26.9943 90.4421 26.8097 90.6893 26.6761C90.9364 26.5426 91.2092 26.4432 91.5075 26.3778C91.8086 26.3097 92.1112 26.2557 92.4151 26.2159C92.8129 26.1648 93.1353 26.1264 93.3825 26.1009C93.6325 26.0724 93.8143 26.0256 93.9279 25.9602C94.0444 25.8949 94.1026 25.7812 94.1026 25.6193V25.5852C94.1026 25.1648 93.9876 24.8381 93.7575 24.6051C93.5302 24.3722 93.185 24.2557 92.7219 24.2557C92.2418 24.2557 91.8654 24.3608 91.5927 24.571C91.32 24.7812 91.1282 25.0057 91.0174 25.2443L90.0629 24.9034C90.2333 24.5057 90.4606 24.196 90.7447 23.9744C91.0316 23.75 91.3441 23.5938 91.6822 23.5057C92.0231 23.4148 92.3583 23.3693 92.6879 23.3693C92.8981 23.3693 93.1396 23.3949 93.4123 23.446C93.6879 23.4943 93.9535 23.5952 94.2092 23.7486C94.4677 23.902 94.6822 24.1335 94.8526 24.4432C95.0231 24.7528 95.1083 25.1676 95.1083 25.6875V30H94.1026V29.1136H94.0515C93.9833 29.2557 93.8697 29.4077 93.7106 29.5696C93.5515 29.7315 93.3398 29.8693 93.0756 29.983C92.8114 30.0966 92.489 30.1534 92.1083 30.1534ZM92.2617 29.25C92.6594 29.25 92.9947 29.1719 93.2674 29.0156C93.543 28.8594 93.7504 28.6577 93.8896 28.4105C94.0316 28.1634 94.1026 27.9034 94.1026 27.6307V26.7102C94.06 26.7614 93.9663 26.8082 93.8214 26.8509C93.6793 26.8906 93.5146 26.9261 93.3271 26.9574C93.1424 26.9858 92.962 27.0114 92.7859 27.0341C92.6126 27.054 92.4719 27.071 92.364 27.0852C92.1026 27.1193 91.8583 27.1747 91.631 27.2514C91.4066 27.3253 91.2248 27.4375 91.0856 27.5881C90.9492 27.7358 90.881 27.9375 90.881 28.1932C90.881 28.5426 91.0103 28.8068 91.2688 28.9858C91.5302 29.1619 91.8612 29.25 92.2617 29.25Z" fill="black"/>
<path d="M99.5859 32.5909C99.1001 32.5909 98.6825 32.5284 98.3331 32.4034C97.9837 32.2812 97.6925 32.1193 97.4595 31.9176C97.2294 31.7188 97.0462 31.5057 96.9098 31.2784L97.7109 30.7159C97.8018 30.8352 97.9169 30.9716 98.0561 31.125C98.1953 31.2812 98.3857 31.4162 98.6271 31.5298C98.8714 31.6463 99.1911 31.7045 99.5859 31.7045C100.114 31.7045 100.55 31.5767 100.894 31.321C101.238 31.0653 101.41 30.6648 101.41 30.1193V28.7898H101.325C101.251 28.9091 101.146 29.0568 101.009 29.233C100.876 29.4062 100.683 29.5611 100.43 29.6974C100.18 29.831 99.8416 29.8977 99.4155 29.8977C98.8871 29.8977 98.4126 29.7727 97.9922 29.5227C97.5746 29.2727 97.2436 28.9091 96.9993 28.4318C96.7578 27.9545 96.6371 27.375 96.6371 26.6932C96.6371 26.0227 96.755 25.4389 96.9908 24.9418C97.2266 24.4418 97.5547 24.0554 97.9751 23.7827C98.3956 23.5071 98.8814 23.3693 99.4325 23.3693C99.8587 23.3693 100.197 23.4403 100.447 23.5824C100.7 23.7216 100.893 23.8807 101.026 24.0597C101.163 24.2358 101.268 24.3807 101.342 24.4943H101.444V23.4545H102.415V30.1875C102.415 30.75 102.288 31.2074 102.032 31.5597C101.779 31.9148 101.438 32.1747 101.009 32.3395C100.583 32.5071 100.109 32.5909 99.5859 32.5909ZM99.5518 28.9943C99.9553 28.9943 100.296 28.902 100.575 28.7173C100.853 28.5327 101.065 28.267 101.21 27.9205C101.354 27.5739 101.427 27.1591 101.427 26.6761C101.427 26.2045 101.356 25.7884 101.214 25.4276C101.072 25.0668 100.862 24.7841 100.583 24.5795C100.305 24.375 99.9609 24.2727 99.5518 24.2727C99.1257 24.2727 98.7706 24.3807 98.4865 24.5966C98.2053 24.8125 97.9936 25.1023 97.8516 25.4659C97.7124 25.8295 97.6428 26.233 97.6428 26.6761C97.6428 27.1307 97.7138 27.5327 97.8558 27.8821C98.0007 28.2287 98.2138 28.5014 98.495 28.7003C98.7791 28.8963 99.1314 28.9943 99.5518 28.9943Z" fill="black"/>
<path d="M107.001 30.1364C106.37 30.1364 105.826 29.9972 105.369 29.7188C104.914 29.4375 104.563 29.0455 104.316 28.5426C104.072 28.0369 103.95 27.4489 103.95 26.7784C103.95 26.108 104.072 25.517 104.316 25.0057C104.563 24.4915 104.907 24.0909 105.347 23.804C105.79 23.5142 106.308 23.3693 106.898 23.3693C107.239 23.3693 107.576 23.4261 107.908 23.5398C108.241 23.6534 108.543 23.8381 108.816 24.0938C109.089 24.3466 109.306 24.6818 109.468 25.0994C109.63 25.517 109.711 26.0313 109.711 26.642V27.0682H104.665V26.1989H108.688C108.688 25.8295 108.614 25.5 108.467 25.2102C108.322 24.9205 108.114 24.6918 107.844 24.5241C107.577 24.3565 107.262 24.2727 106.898 24.2727C106.498 24.2727 106.151 24.3722 105.859 24.571C105.569 24.767 105.346 25.0227 105.19 25.3381C105.033 25.6534 104.955 25.9915 104.955 26.3523V26.9318C104.955 27.4261 105.04 27.8452 105.211 28.1889C105.384 28.5298 105.624 28.7898 105.931 28.9688C106.238 29.1449 106.594 29.233 107.001 29.233C107.265 29.233 107.504 29.196 107.717 29.1222C107.933 29.0455 108.119 28.9318 108.275 28.7812C108.431 28.6278 108.552 28.4375 108.637 28.2102L109.609 28.483C109.506 28.8125 109.335 29.1023 109.093 29.3523C108.852 29.5994 108.553 29.7926 108.198 29.9318C107.843 30.0682 107.444 30.1364 107.001 30.1364Z" fill="black"/>
</svg>
